<?xml version="1.0" standalone="no"?><!DOCTYPE svg PUBLIC "-//W3C//DTD SVG 1.1//EN" "http://www.w3.org/Graphics/SVG/1.1/DTD/svg11.dtd"><svg t="1711679807324" class="icon" viewBox="0 0 1024 1024" version="1.1" xmlns="http://www.w3.org/2000/svg" p-id="7947" xmlns:xlink="http://www.w3.org/1999/xlink" width="200" height="200"><path d="M967.68 742.4V501.76c0-20.48-17.92-38.4-38.4-38.4s-38.4 17.92-38.4 38.4v145.92l-112.64-112.64s0-2.56-2.56-2.56l-184.32-184.32c-7.68-7.68-17.92-12.8-28.16-10.24-10.24 0-20.48 2.56-28.16 10.24l-156.16 156.16-256-256c-15.36-15.36-40.96-15.36-56.32 0-15.36 15.36-15.36 40.96 0 56.32l281.6 281.6c7.68 7.68 17.92 12.8 28.16 10.24 10.24 0 20.48-2.56 28.16-10.24l156.16-156.16 48.64 48.64 217.6 217.6 2.56 2.56h-145.92c-20.48 0-38.4 17.92-38.4 38.4s17.92 38.4 38.4 38.4h243.2l2.56-2.56c38.4-28.16 38.4-28.16 38.4-30.72z m0 0" fill="#e13c27" p-id="7948"></path></svg>