<?xml version="1.0" standalone="no"?><!DOCTYPE svg PUBLIC "-//W3C//DTD SVG 1.1//EN" "http://www.w3.org/Graphics/SVG/1.1/DTD/svg11.dtd"><svg t="1711612892816" class="icon" viewBox="0 0 1024 1024" version="1.1" xmlns="http://www.w3.org/2000/svg" p-id="4565" xmlns:xlink="http://www.w3.org/1999/xlink" width="200" height="200"><path d="M512 953.856c-20.48 0-40.96-6.144-58.368-18.944-2.048-1.536-247.808-200.192-348.672-349.184C71.68 536.064 25.6 467.968 25.6 370.176 25.6 204.8 157.184 70.144 318.464 70.144c72.192 0 140.288 26.624 193.536 74.752a287.1296 287.1296 0 0 1 193.536-74.752c161.28 0 292.864 134.656 292.864 300.032 0 97.792-46.08 165.888-79.872 215.552-100.864 148.992-346.624 347.648-348.672 349.184-17.408 12.8-37.376 18.944-57.856 18.944zM318.464 158.72c-112.64 0-204.288 94.72-204.288 211.456 0 70.656 34.304 121.344 64.512 165.888 85.504 126.464 305.664 310.272 327.68 327.68 3.584 2.56 8.192 2.56 11.776 0 22.016-16.896 242.176-200.704 327.68-327.168 30.208-44.544 64.512-95.232 64.512-165.888 0-116.736-91.648-211.456-204.8-211.456-61.952 0-119.808 28.672-158.72 78.336-8.704 9.728-21.504 15.872-34.816 15.872-13.312 0-26.624-6.144-34.816-16.896a200.5504 200.5504 0 0 0-158.72-77.824z" fill="" p-id="4566"></path></svg>