<?xml version="1.0" standalone="no"?><!DOCTYPE svg PUBLIC "-//W3C//DTD SVG 1.1//EN" "http://www.w3.org/Graphics/SVG/1.1/DTD/svg11.dtd"><svg t="1711679759120" class="icon" viewBox="0 0 1024 1024" version="1.1" xmlns="http://www.w3.org/2000/svg" p-id="5949" xmlns:xlink="http://www.w3.org/1999/xlink" width="200" height="200"><path d="M1015.466667 256v8.533333l-21.333334 226.133334c0 17.066667-17.066667 34.133333-38.4 29.866666-8.533333 0-12.8-4.266667-21.333333-8.533333l-64-59.733333-251.733333 285.866666c-17.066667 17.066667-42.666667 17.066667-59.733334 4.266667l-4.266666-4.266667L320 469.333333l-238.933333 273.066667c-17.066667 17.066667-42.666667 21.333333-59.733334 4.266667-17.066667-17.066667-21.333333-42.666667-4.266666-59.733334l268.8-307.2c17.066667-21.333333 46.933333-21.333333 64 0l238.933333 268.8L810.666667 396.8l-72.533334-64c-12.8-12.8-17.066667-34.133333-4.266666-46.933333 4.266667-4.266667 12.8-8.533333 17.066666-8.533334l221.866667-42.666666c21.333333-8.533333 38.4 4.266667 42.666667 21.333333z" fill="#11b91d" p-id="5950"></path></svg>